<mxfile host="app.diagrams.net" modified="2023-05-08T23:12:27.428Z" agent="Mozilla/5.0 (Windows NT 10.0; Win64; x64) AppleWebKit/537.36 (KHTML, like Gecko) Chrome/112.0.0.0 Safari/537.36 OPR/98.0.0.0" etag="rStxOOQpF65YbZaCR6rJ" version="21.2.3" type="device">
  <diagram id="y5UhOXJ24lHy6HSWHHRA" name="Σελίδα-1">
    <mxGraphModel dx="3090" dy="1643" grid="0" gridSize="10" guides="1" tooltips="1" connect="1" arrows="1" fold="1" page="0" pageScale="1" pageWidth="827" pageHeight="1169" math="0" shadow="0">
      <root>
        <mxCell id="0" />
        <mxCell id="1" parent="0" />
        <mxCell id="HchMumat6N0xvnnnB4oJ-53" value="" style="edgeStyle=none;curved=1;rounded=0;orthogonalLoop=1;jettySize=auto;html=1;fontSize=13;startSize=8;endSize=8;fontColor=#000000;strokeColor=#FF3333;" parent="1" source="HchMumat6N0xvnnnB4oJ-2" target="HchMumat6N0xvnnnB4oJ-39" edge="1">
          <mxGeometry x="0.5272" y="64" relative="1" as="geometry">
            <mxPoint x="371" y="111" as="targetPoint" />
            <mxPoint as="offset" />
          </mxGeometry>
        </mxCell>
        <mxCell id="nytSstBC6C1jP0jetPo6-3" value="&lt;font style=&quot;font-size: 12px;&quot;&gt;Παραθέτει όνομα φαγητού και τις διατροφικές του πληροφορίες&lt;/font&gt;" style="edgeLabel;html=1;align=center;verticalAlign=middle;resizable=0;points=[];rotation=0;fontColor=#000000;" parent="HchMumat6N0xvnnnB4oJ-53" vertex="1" connectable="0">
          <mxGeometry x="0.3355" y="-2" relative="1" as="geometry">
            <mxPoint x="-50" y="-30" as="offset" />
          </mxGeometry>
        </mxCell>
        <mxCell id="HchMumat6N0xvnnnB4oJ-55" value="" style="edgeStyle=none;curved=1;rounded=0;orthogonalLoop=1;jettySize=auto;html=1;fontSize=12;startSize=8;endSize=8;strokeColor=#000000;fontColor=#000000;" parent="1" source="HchMumat6N0xvnnnB4oJ-2" target="HchMumat6N0xvnnnB4oJ-6" edge="1">
          <mxGeometry relative="1" as="geometry" />
        </mxCell>
        <mxCell id="nytSstBC6C1jP0jetPo6-1" value="&lt;font&gt;Παραθέτει το φαγητό και&lt;br&gt;&amp;nbsp;την ποσότητα που τον ενδιαφέρει&lt;/font&gt;" style="edgeLabel;html=1;align=center;verticalAlign=middle;resizable=0;points=[];rotation=0;fontColor=#000000;" parent="HchMumat6N0xvnnnB4oJ-55" vertex="1" connectable="0">
          <mxGeometry x="0.3814" relative="1" as="geometry">
            <mxPoint x="-7" y="-18" as="offset" />
          </mxGeometry>
        </mxCell>
        <mxCell id="HchMumat6N0xvnnnB4oJ-56" value="" style="edgeStyle=none;curved=1;rounded=0;orthogonalLoop=1;jettySize=auto;html=1;fontSize=12;startSize=8;endSize=8;strokeColor=#000000;fontColor=#000000;" parent="1" source="HchMumat6N0xvnnnB4oJ-2" target="HchMumat6N0xvnnnB4oJ-18" edge="1">
          <mxGeometry relative="1" as="geometry" />
        </mxCell>
        <mxCell id="HchMumat6N0xvnnnB4oJ-57" value="&lt;font style=&quot;font-size: 12px;&quot;&gt;Εισάγει επιλογή&lt;br&gt;(προσθήκη φαγητού ή όχι στην ημερίσια λίστα)&lt;br&gt;&lt;/font&gt;" style="edgeLabel;html=1;align=center;verticalAlign=middle;resizable=0;points=[];fontSize=16;rotation=0;fontColor=#000000;" parent="HchMumat6N0xvnnnB4oJ-56" vertex="1" connectable="0">
          <mxGeometry x="-0.2525" y="2" relative="1" as="geometry">
            <mxPoint x="-31" y="-36" as="offset" />
          </mxGeometry>
        </mxCell>
        <mxCell id="HchMumat6N0xvnnnB4oJ-2" value="Χρήστης" style="shape=umlActor;verticalLabelPosition=bottom;verticalAlign=top;html=1;fontSize=16;fontColor=#000000;" parent="1" vertex="1">
          <mxGeometry x="106" y="-170" width="30" height="60" as="geometry" />
        </mxCell>
        <mxCell id="HchMumat6N0xvnnnB4oJ-11" value="" style="edgeStyle=none;curved=1;rounded=0;orthogonalLoop=1;jettySize=auto;html=1;fontSize=12;startSize=8;endSize=8;strokeColor=#000000;fontColor=#000000;" parent="1" source="HchMumat6N0xvnnnB4oJ-6" target="HchMumat6N0xvnnnB4oJ-10" edge="1">
          <mxGeometry relative="1" as="geometry" />
        </mxCell>
        <mxCell id="HchMumat6N0xvnnnB4oJ-6" value="&lt;font style=&quot;font-size: 14px;&quot;&gt;Σελίδα αναζήτησης φαγητού&lt;/font&gt;" style="shape=umlBoundary;whiteSpace=wrap;html=1;fontSize=16;strokeColor=#000000;fontColor=#000000;" parent="1" vertex="1">
          <mxGeometry x="149" y="28" width="115" height="90" as="geometry" />
        </mxCell>
        <mxCell id="HchMumat6N0xvnnnB4oJ-13" value="&lt;font&gt;ναι&lt;/font&gt;" style="edgeStyle=none;curved=1;rounded=0;orthogonalLoop=1;jettySize=auto;html=1;fontSize=12;startSize=8;endSize=8;strokeColor=#000000;fontColor=#000000;" parent="1" source="HchMumat6N0xvnnnB4oJ-10" target="HchMumat6N0xvnnnB4oJ-12" edge="1">
          <mxGeometry y="12" relative="1" as="geometry">
            <mxPoint as="offset" />
          </mxGeometry>
        </mxCell>
        <mxCell id="HchMumat6N0xvnnnB4oJ-21" value="" style="edgeStyle=none;curved=1;rounded=0;orthogonalLoop=1;jettySize=auto;html=1;fontSize=12;startSize=8;endSize=8;strokeColor=#000000;fontColor=#000000;" parent="1" source="HchMumat6N0xvnnnB4oJ-10" target="HchMumat6N0xvnnnB4oJ-20" edge="1">
          <mxGeometry relative="1" as="geometry" />
        </mxCell>
        <mxCell id="HchMumat6N0xvnnnB4oJ-36" value="&lt;font style=&quot;font-size: 12px;&quot;&gt;οχι&lt;/font&gt;" style="edgeStyle=none;curved=1;rounded=0;orthogonalLoop=1;jettySize=auto;html=1;fontSize=12;startSize=8;endSize=8;entryX=-0.05;entryY=0.6;entryDx=0;entryDy=0;entryPerimeter=0;fontColor=#000000;strokeColor=#FF0000;" parent="1" source="HchMumat6N0xvnnnB4oJ-10" target="HchMumat6N0xvnnnB4oJ-37" edge="1">
          <mxGeometry x="-0.2273" y="11" relative="1" as="geometry">
            <mxPoint x="297.48967377625013" y="240.54557458129193" as="targetPoint" />
            <mxPoint as="offset" />
          </mxGeometry>
        </mxCell>
        <mxCell id="HchMumat6N0xvnnnB4oJ-10" value="&lt;font style=&quot;font-size: 14px;&quot;&gt;Υπάρχει το φαγητό;&lt;/font&gt;" style="ellipse;shape=umlControl;whiteSpace=wrap;html=1;fontSize=16;strokeColor=#000000;fontColor=#000000;" parent="1" vertex="1">
          <mxGeometry x="17" y="132" width="84" height="89" as="geometry" />
        </mxCell>
        <mxCell id="HchMumat6N0xvnnnB4oJ-19" value="" style="edgeStyle=none;curved=1;rounded=0;orthogonalLoop=1;jettySize=auto;html=1;fontSize=12;startSize=8;endSize=8;strokeColor=#000000;fontColor=#000000;" parent="1" source="HchMumat6N0xvnnnB4oJ-12" target="HchMumat6N0xvnnnB4oJ-18" edge="1">
          <mxGeometry relative="1" as="geometry" />
        </mxCell>
        <mxCell id="HchMumat6N0xvnnnB4oJ-12" value="&lt;font style=&quot;font-size: 14px;&quot;&gt;Εμφάνισε&lt;/font&gt;" style="ellipse;shape=umlControl;whiteSpace=wrap;html=1;fontSize=16;strokeColor=#000000;fontColor=#000000;" parent="1" vertex="1">
          <mxGeometry x="24" y="277" width="70" height="80" as="geometry" />
        </mxCell>
        <mxCell id="HchMumat6N0xvnnnB4oJ-25" value="" style="edgeStyle=none;curved=1;rounded=0;orthogonalLoop=1;jettySize=auto;html=1;fontSize=12;startSize=8;endSize=8;strokeColor=#000000;fontColor=#000000;" parent="1" source="HchMumat6N0xvnnnB4oJ-18" target="HchMumat6N0xvnnnB4oJ-24" edge="1">
          <mxGeometry relative="1" as="geometry" />
        </mxCell>
        <mxCell id="HchMumat6N0xvnnnB4oJ-18" value="&lt;font style=&quot;font-size: 14px;&quot;&gt;Σελίδα λεπτομέρειες φαγητού&lt;/font&gt;" style="shape=umlBoundary;whiteSpace=wrap;html=1;fontSize=16;strokeColor=#000000;fontColor=#000000;" parent="1" vertex="1">
          <mxGeometry x="-193" y="277" width="100" height="80" as="geometry" />
        </mxCell>
        <mxCell id="HchMumat6N0xvnnnB4oJ-20" value="&lt;font style=&quot;font-size: 14px;&quot;&gt;Λίστα φαγητών&lt;/font&gt;" style="ellipse;shape=umlEntity;whiteSpace=wrap;html=1;fontSize=16;strokeColor=#000000;fontColor=#000000;" parent="1" vertex="1">
          <mxGeometry x="21" y="28" width="80" height="80" as="geometry" />
        </mxCell>
        <mxCell id="HchMumat6N0xvnnnB4oJ-31" value="&lt;font&gt;ναι&lt;/font&gt;" style="edgeStyle=none;curved=1;rounded=0;orthogonalLoop=1;jettySize=auto;html=1;fontSize=12;startSize=8;endSize=8;strokeColor=#000000;fontColor=#000000;" parent="1" source="HchMumat6N0xvnnnB4oJ-24" target="HchMumat6N0xvnnnB4oJ-30" edge="1">
          <mxGeometry x="-0.1018" y="-17" relative="1" as="geometry">
            <mxPoint as="offset" />
          </mxGeometry>
        </mxCell>
        <mxCell id="1wl4rmuTQigiIzuRuNbE-14" value="" style="edgeStyle=orthogonalEdgeStyle;rounded=0;orthogonalLoop=1;jettySize=auto;html=1;strokeColor=#FF0000;fontColor=#000000;endArrow=classic;endFill=1;" parent="1" target="1wl4rmuTQigiIzuRuNbE-13" edge="1">
          <mxGeometry relative="1" as="geometry">
            <mxPoint x="-143.63" y="519" as="sourcePoint" />
            <mxPoint x="-480.0000000000001" y="712" as="targetPoint" />
            <Array as="points">
              <mxPoint x="-144" y="756" />
            </Array>
          </mxGeometry>
        </mxCell>
        <mxCell id="1wl4rmuTQigiIzuRuNbE-17" value="οχι" style="edgeLabel;html=1;align=center;verticalAlign=middle;resizable=0;points=[];fontColor=#000000;fontSize=15;" parent="1wl4rmuTQigiIzuRuNbE-14" vertex="1" connectable="0">
          <mxGeometry x="-0.1075" y="-1" relative="1" as="geometry">
            <mxPoint y="-214" as="offset" />
          </mxGeometry>
        </mxCell>
        <mxCell id="HchMumat6N0xvnnnB4oJ-24" value="&lt;font style=&quot;font-size: 14px;&quot;&gt;Προσθήκη;&lt;/font&gt;" style="ellipse;shape=umlControl;whiteSpace=wrap;html=1;fontSize=16;strokeColor=#000000;fontColor=#000000;" parent="1" vertex="1">
          <mxGeometry x="-178" y="439" width="70" height="80" as="geometry" />
        </mxCell>
        <mxCell id="rCAZ0m6CEGgXyNaDaJJ7-9" value="" style="edgeStyle=none;rounded=0;orthogonalLoop=1;jettySize=auto;html=1;fontSize=14;strokeColor=#000000;entryX=1;entryY=0.525;entryDx=0;entryDy=0;entryPerimeter=0;fontColor=#000000;" parent="1" source="HchMumat6N0xvnnnB4oJ-30" target="1wl4rmuTQigiIzuRuNbE-4" edge="1">
          <mxGeometry relative="1" as="geometry">
            <mxPoint x="-358" y="479" as="targetPoint" />
          </mxGeometry>
        </mxCell>
        <mxCell id="HchMumat6N0xvnnnB4oJ-30" value="&lt;font style=&quot;font-size: 14px;&quot;&gt;Πρόσθεσε φαγητό&lt;/font&gt;" style="ellipse;shape=umlControl;whiteSpace=wrap;html=1;fontSize=16;strokeColor=#000000;fontColor=#000000;" parent="1" vertex="1">
          <mxGeometry x="-329" y="439" width="70" height="80" as="geometry" />
        </mxCell>
        <mxCell id="HchMumat6N0xvnnnB4oJ-32" value="&lt;font style=&quot;font-size: 14px;&quot;&gt;Σελίδα ημερήσια λίστα/ λίστα κατανάλωσης&lt;/font&gt;" style="shape=umlBoundary;whiteSpace=wrap;html=1;fontSize=16;strokeColor=#000000;fontColor=#000000;" parent="1" vertex="1">
          <mxGeometry x="-722" y="425" width="133" height="108" as="geometry" />
        </mxCell>
        <mxCell id="rCAZ0m6CEGgXyNaDaJJ7-4" value="" style="edgeStyle=orthogonalEdgeStyle;rounded=0;orthogonalLoop=1;jettySize=auto;html=1;fontColor=#000000;strokeColor=#FF0000;" parent="1" target="rCAZ0m6CEGgXyNaDaJJ7-1" edge="1">
          <mxGeometry relative="1" as="geometry">
            <mxPoint x="269" y="173" as="sourcePoint" />
            <Array as="points">
              <mxPoint x="269" y="172" />
            </Array>
          </mxGeometry>
        </mxCell>
        <mxCell id="HchMumat6N0xvnnnB4oJ-37" value="&lt;font style=&quot;font-size: 14px;&quot;&gt;Εμφάνισε&amp;nbsp;&lt;/font&gt;" style="ellipse;shape=umlControl;whiteSpace=wrap;html=1;fontSize=16;fontColor=#FFFFFF;fillColor=#FF0000;strokeColor=#FF0000;" parent="1" vertex="1">
          <mxGeometry x="189" y="128" width="75" height="80.5" as="geometry" />
        </mxCell>
        <mxCell id="HchMumat6N0xvnnnB4oJ-52" value="" style="edgeStyle=none;curved=1;rounded=0;orthogonalLoop=1;jettySize=auto;html=1;fontSize=12;startSize=8;endSize=8;fontColor=#000000;strokeColor=#FF0000;" parent="1" source="HchMumat6N0xvnnnB4oJ-39" target="HchMumat6N0xvnnnB4oJ-41" edge="1">
          <mxGeometry relative="1" as="geometry" />
        </mxCell>
        <mxCell id="HchMumat6N0xvnnnB4oJ-39" value="&lt;font style=&quot;font-size: 14px;&quot;&gt;Σελίδα προσθήκης&amp;nbsp; φαγητού στη λίστα φαγητών&lt;/font&gt;" style="shape=umlBoundary;fontSize=16;html=1;whiteSpace=wrap;horizontal=1;labelBackgroundColor=none;labelBorderColor=none;spacingTop=0;spacing=0;spacingRight=0;spacingLeft=5;fontColor=#FFFFFF;fillColor=#FF0000;strokeColor=#FF0000;" parent="1" vertex="1">
          <mxGeometry x="517.5" y="-30" width="150" height="120" as="geometry" />
        </mxCell>
        <mxCell id="HchMumat6N0xvnnnB4oJ-44" value="" style="edgeStyle=none;curved=1;rounded=0;orthogonalLoop=1;jettySize=auto;html=1;fontSize=12;startSize=8;endSize=8;fontColor=#000000;strokeColor=#FF0000;endArrow=none;endFill=0;" parent="1" source="HchMumat6N0xvnnnB4oJ-41" target="HchMumat6N0xvnnnB4oJ-43" edge="1">
          <mxGeometry relative="1" as="geometry" />
        </mxCell>
        <mxCell id="HchMumat6N0xvnnnB4oJ-45" value="" style="edgeStyle=none;curved=1;rounded=0;orthogonalLoop=1;jettySize=auto;html=1;fontSize=12;startSize=8;endSize=8;fontColor=#000000;strokeColor=#FF0000;" parent="1" source="HchMumat6N0xvnnnB4oJ-41" target="HchMumat6N0xvnnnB4oJ-12" edge="1">
          <mxGeometry relative="1" as="geometry" />
        </mxCell>
        <mxCell id="HchMumat6N0xvnnnB4oJ-41" value="&lt;font style=&quot;font-size: 14px;&quot;&gt;Προσθήκη στη λίστα φαγητών&lt;/font&gt;" style="ellipse;shape=umlControl;whiteSpace=wrap;html=1;fontSize=16;fontColor=#FFFFFF;fillColor=#FF0000;" parent="1" vertex="1">
          <mxGeometry x="550" y="260" width="85" height="95" as="geometry" />
        </mxCell>
        <mxCell id="HchMumat6N0xvnnnB4oJ-43" value="&lt;font style=&quot;font-size: 14px;&quot;&gt;Λίστα φαγητών&lt;/font&gt;" style="ellipse;shape=umlEntity;whiteSpace=wrap;html=1;fontSize=16;fontColor=#000000;strokeColor=#000000;" parent="1" vertex="1">
          <mxGeometry x="40" y="496" width="80" height="80" as="geometry" />
        </mxCell>
        <mxCell id="hVmCNeH1QFMWmfHC9A5S-5" value="" style="rounded=0;orthogonalLoop=1;jettySize=auto;html=1;strokeColor=#000000;fontColor=#000000;" parent="1" source="hVmCNeH1QFMWmfHC9A5S-4" target="HchMumat6N0xvnnnB4oJ-32" edge="1">
          <mxGeometry relative="1" as="geometry" />
        </mxCell>
        <mxCell id="hVmCNeH1QFMWmfHC9A5S-4" value="&lt;font style=&quot;font-size: 14px;&quot;&gt;Εμφάνισε&lt;/font&gt;" style="ellipse;shape=umlControl;whiteSpace=wrap;html=1;strokeColor=#000000;fontColor=#000000;" parent="1" vertex="1">
          <mxGeometry x="-550" y="439" width="70" height="80" as="geometry" />
        </mxCell>
        <mxCell id="rCAZ0m6CEGgXyNaDaJJ7-5" value="" style="rounded=0;orthogonalLoop=1;jettySize=auto;html=1;fontColor=#000000;strokeColor=#FF0000;" parent="1" target="rCAZ0m6CEGgXyNaDaJJ7-2" edge="1">
          <mxGeometry relative="1" as="geometry">
            <mxPoint x="370" y="130" as="sourcePoint" />
          </mxGeometry>
        </mxCell>
        <mxCell id="rCAZ0m6CEGgXyNaDaJJ7-1" value="&lt;font style=&quot;font-size: 14px;&quot;&gt;Mήνυμα ανεπιτυχούς εντοπισμού&lt;/font&gt;" style="shape=umlBoundary;whiteSpace=wrap;html=1;fontColor=#FFFFFF;fillColor=#FF0000;strokeColor=#FF0000;" parent="1" vertex="1">
          <mxGeometry x="312" y="132" width="100" height="80" as="geometry" />
        </mxCell>
        <mxCell id="rCAZ0m6CEGgXyNaDaJJ7-6" value="" style="edgeStyle=none;rounded=0;orthogonalLoop=1;jettySize=auto;html=1;fontColor=#000000;strokeColor=#FF0000;" parent="1" source="rCAZ0m6CEGgXyNaDaJJ7-2" target="HchMumat6N0xvnnnB4oJ-39" edge="1">
          <mxGeometry relative="1" as="geometry" />
        </mxCell>
        <mxCell id="rCAZ0m6CEGgXyNaDaJJ7-2" value="&lt;font style=&quot;font-size: 14px;&quot;&gt;Εμφάνισε&lt;/font&gt;" style="ellipse;shape=umlControl;whiteSpace=wrap;html=1;fontColor=#FFFFFF;fillColor=#FF0000;" parent="1" vertex="1">
          <mxGeometry x="335" y="-10" width="70" height="80" as="geometry" />
        </mxCell>
        <mxCell id="1wl4rmuTQigiIzuRuNbE-1" value="&lt;font style=&quot;font-size: 14px;&quot;&gt;Ημερήσια λίστα κατανάλωσης&lt;/font&gt;" style="ellipse;shape=umlEntity;whiteSpace=wrap;html=1;fontSize=16;strokeColor=#000000;fontColor=#000000;" parent="1" vertex="1">
          <mxGeometry x="-458" y="245" width="100" height="100" as="geometry" />
        </mxCell>
        <mxCell id="1wl4rmuTQigiIzuRuNbE-2" value="" style="edgeStyle=none;curved=1;rounded=0;orthogonalLoop=1;jettySize=auto;html=1;fontSize=12;startSize=8;endSize=8;strokeColor=#000000;fontColor=#000000;" parent="1" source="1wl4rmuTQigiIzuRuNbE-4" target="1wl4rmuTQigiIzuRuNbE-1" edge="1">
          <mxGeometry relative="1" as="geometry" />
        </mxCell>
        <mxCell id="1wl4rmuTQigiIzuRuNbE-3" value="" style="edgeStyle=none;rounded=0;orthogonalLoop=1;jettySize=auto;html=1;fontSize=14;strokeColor=#000000;entryX=0.986;entryY=0.488;entryDx=0;entryDy=0;entryPerimeter=0;fontColor=#000000;" parent="1" source="1wl4rmuTQigiIzuRuNbE-4" target="hVmCNeH1QFMWmfHC9A5S-4" edge="1">
          <mxGeometry relative="1" as="geometry">
            <mxPoint x="-478" y="477" as="targetPoint" />
          </mxGeometry>
        </mxCell>
        <mxCell id="1wl4rmuTQigiIzuRuNbE-4" value="&lt;font style=&quot;font-size: 14px;&quot;&gt;Ανανέωσε&lt;br&gt;&lt;/font&gt;" style="ellipse;shape=umlControl;whiteSpace=wrap;html=1;fontSize=16;strokeColor=#000000;fontColor=#000000;" parent="1" vertex="1">
          <mxGeometry x="-443" y="437" width="70" height="80" as="geometry" />
        </mxCell>
        <mxCell id="1wl4rmuTQigiIzuRuNbE-10" value="" style="endArrow=none;html=1;rounded=0;strokeColor=#000000;fontColor=#000000;entryX=0.534;entryY=0.974;entryDx=0;entryDy=0;entryPerimeter=0;endFill=0;" parent="1" source="HchMumat6N0xvnnnB4oJ-43" target="HchMumat6N0xvnnnB4oJ-12" edge="1">
          <mxGeometry width="50" height="50" relative="1" as="geometry">
            <mxPoint x="250" y="451" as="sourcePoint" />
            <mxPoint x="300" y="401" as="targetPoint" />
          </mxGeometry>
        </mxCell>
        <mxCell id="1wl4rmuTQigiIzuRuNbE-18" style="rounded=0;orthogonalLoop=1;jettySize=auto;html=1;exitX=0;exitY=0;exitDx=0;exitDy=0;entryX=0.905;entryY=0.914;entryDx=0;entryDy=0;entryPerimeter=0;strokeColor=#000000;fontColor=#000000;endArrow=none;endFill=0;" parent="1" source="1wl4rmuTQigiIzuRuNbE-12" target="hVmCNeH1QFMWmfHC9A5S-4" edge="1">
          <mxGeometry relative="1" as="geometry" />
        </mxCell>
        <mxCell id="1wl4rmuTQigiIzuRuNbE-12" value="&lt;font style=&quot;font-size: 14px;&quot;&gt;Ημερήσια λίστα γευμάτων&lt;/font&gt;" style="ellipse;shape=umlEntity;whiteSpace=wrap;html=1;fontColor=#000000;strokeColor=#000000;" parent="1" vertex="1">
          <mxGeometry x="-438" y="565" width="80" height="80" as="geometry" />
        </mxCell>
        <mxCell id="1wl4rmuTQigiIzuRuNbE-15" value="" style="rounded=0;orthogonalLoop=1;jettySize=auto;html=1;strokeColor=#FF0000;fontColor=#000000;endArrow=none;endFill=0;exitX=0.783;exitY=0.159;exitDx=0;exitDy=0;exitPerimeter=0;" parent="1" source="1wl4rmuTQigiIzuRuNbE-13" target="1wl4rmuTQigiIzuRuNbE-12" edge="1">
          <mxGeometry relative="1" as="geometry" />
        </mxCell>
        <mxCell id="1wl4rmuTQigiIzuRuNbE-13" value="&lt;font color=&quot;#ffffff&quot;&gt;Εμφάνισε&lt;/font&gt;" style="ellipse;shape=umlControl;whiteSpace=wrap;html=1;fontColor=#000000;fillColor=#FF0000;" parent="1" vertex="1">
          <mxGeometry x="-552" y="711" width="70" height="80" as="geometry" />
        </mxCell>
        <mxCell id="1wl4rmuTQigiIzuRuNbE-16" value="" style="endArrow=classic;html=1;rounded=0;strokeColor=#FF0000;fontColor=#000000;entryX=0.552;entryY=0.995;entryDx=0;entryDy=0;entryPerimeter=0;exitX=-0.031;exitY=0.61;exitDx=0;exitDy=0;exitPerimeter=0;" parent="1" source="1wl4rmuTQigiIzuRuNbE-13" target="HchMumat6N0xvnnnB4oJ-32" edge="1">
          <mxGeometry width="50" height="50" relative="1" as="geometry">
            <mxPoint x="-630" y="565" as="sourcePoint" />
            <mxPoint x="-571" y="557" as="targetPoint" />
            <Array as="points">
              <mxPoint x="-649" y="759" />
            </Array>
          </mxGeometry>
        </mxCell>
        <mxCell id="1wl4rmuTQigiIzuRuNbE-19" value="" style="endArrow=none;html=1;rounded=0;strokeColor=#000000;fontColor=#000000;exitX=0.457;exitY=0.992;exitDx=0;exitDy=0;endFill=0;exitPerimeter=0;entryX=1;entryY=0;entryDx=0;entryDy=0;" parent="1" source="HchMumat6N0xvnnnB4oJ-30" target="1wl4rmuTQigiIzuRuNbE-12" edge="1">
          <mxGeometry width="50" height="50" relative="1" as="geometry">
            <mxPoint x="-389" y="549" as="sourcePoint" />
            <mxPoint x="-314" y="563" as="targetPoint" />
          </mxGeometry>
        </mxCell>
        <mxCell id="UTFZLsoe_J6_CnRlzIFK-1" value="&lt;font style=&quot;font-size: 14px;&quot;&gt;Ημερήσια λίστα κατανάλωσης&lt;/font&gt;" style="ellipse;shape=umlEntity;whiteSpace=wrap;html=1;fontSize=16;strokeColor=#000000;fontColor=#000000;" parent="1" vertex="1">
          <mxGeometry x="-565" y="565" width="100" height="100" as="geometry" />
        </mxCell>
        <mxCell id="UTFZLsoe_J6_CnRlzIFK-2" value="" style="endArrow=none;html=1;rounded=0;entryX=0.518;entryY=0.146;entryDx=0;entryDy=0;entryPerimeter=0;exitX=0.5;exitY=1;exitDx=0;exitDy=0;fontColor=#000000;strokeColor=#FF0000;" parent="1" source="UTFZLsoe_J6_CnRlzIFK-1" target="1wl4rmuTQigiIzuRuNbE-13" edge="1">
          <mxGeometry width="50" height="50" relative="1" as="geometry">
            <mxPoint x="-593" y="745" as="sourcePoint" />
            <mxPoint x="-543" y="695" as="targetPoint" />
          </mxGeometry>
        </mxCell>
        <mxCell id="UTFZLsoe_J6_CnRlzIFK-3" value="" style="endArrow=none;html=1;rounded=0;exitX=0.5;exitY=0;exitDx=0;exitDy=0;fontColor=#000000;" parent="1" source="UTFZLsoe_J6_CnRlzIFK-1" target="hVmCNeH1QFMWmfHC9A5S-4" edge="1">
          <mxGeometry width="50" height="50" relative="1" as="geometry">
            <mxPoint x="-603" y="568" as="sourcePoint" />
            <mxPoint x="-553" y="518" as="targetPoint" />
          </mxGeometry>
        </mxCell>
      </root>
    </mxGraphModel>
  </diagram>
</mxfile>
